{"asset":{"version":"2.0","generator":"VECTARY"},"nodes":[{"translation":[0.16008949844985843,2.842170943040401e-17,-0.15590008941259373],"scale":[0.001,0.001,0.001],"rotation":[-0.7071067811865475,0,0,0.7071067811865476],"name":"Scene setup","children":[1]},{"translation":[0,0,0],"scale":[1,1,1],"rotation":[0,0,-0.23530639482784815,0.971921241949738],"name":"Group","children":[2,3,8]},{"translation":[-76.90452444937223,-153.97035287575648,0.3682311552265136],"scale":[0.8987457851711399,0.8987457851711399,0.8987457851711399],"rotation":[0,0,0.38067235744138406,0.9247099849574564],"name":"carpet","mesh":0},{"translation":[75.76030862024426,-302.68070152690404,214.49641096069274],"scale":[364.89892663066,364.89892663066,364.89892663066],"rotation":[0,0,0.38067235744138406,0.9247099849574564],"name":"Plant","children":[4,5,6,7]},{"translation":[0.002406500279903412,0.0010944977402686565,-0.20161899924278268],"scale":[1,1,1],"rotation":[0.7071067811865475,0,0,0.7071067811865476],"name":"Plant","mesh":1},{"translation":[0.002406500279903412,0.0010944977402686565,-0.20161899924278268],"scale":[1,1,1],"rotation":[0.7071067811865475,0,0,0.7071067811865476],"name":"Plant","mesh":2},{"translation":[0.002406500279903398,0.001094497740268631,-0.20161899924278287],"scale":[1,1,1],"rotation":[0.7071067811865475,0,0,0.7071067811865476],"name":"Pot","mesh":3},{"translation":[0.002406500279903412,0.0010944977402686565,-0.20161899924278268],"scale":[1,1,1],"rotation":[0.7071067811865475,0,0,0.7071067811865476],"name":"Soil","mesh":4},{"translation":[-1.4210854715202004e-13,-349.99999999999994,0],"scale":[1.4250907233854426,1,1],"rotation":[0,0,0,1],"name":"Backdrop","mesh":5},{"translation":[0.017643594145094588,-0.0009940629804201038,-0.04564442689757754],"scale":[0.0009287888027180879,0.0009287888027180879,0.0009287888027180879],"rotation":[-0.698847715337203,0.1077583907079712,0.10775839070797122,0.6988477153372031],"name":"Chair","children":[10,14,15,16]},{"translation":[38.13788168498353,51.675763087336406,6.320508068317608],"scale":[0.4,0.4,0.4],"rotation":[0,0,0,1],"name":"Legs","children":[11,12,13]},{"translation":[-281.0331573486328,-1.263153076171875,263.752197265625],"scale":[1,1,1],"rotation":[0,0,0,1],"name":"Bottom piece","mesh":6},{"translation":[-281.0331573486328,-1.263153076171875,263.752197265625],"scale":[1,1,1],"rotation":[0,0,0,1],"name":"Wood part","mesh":7},{"translation":[-281.0331573486328,-1.263153076171875,263.752197265625],"scale":[1,1,1],"rotation":[0,0,0,1],"name":"Gold piece","mesh":8},{"translation":[-70.06529824665708,51.91027999407467,147.81557642769266],"scale":[0.39999999999999997,0.39999999999999997,0.4],"rotation":[0,0,0,1],"name":"Plywood","mesh":9},{"translation":[-9.536807035719596,51.27382216936766,214.34853541206758],"scale":[0.4,0.4,0.4],"rotation":[0,0,0,1],"name":"Seat","mesh":10},{"translation":[62.43424398967106,102.69136672503163,268.4711902174883],"scale":[0.27471759999999995,0.27471759999999995,0.27471759999999995],"rotation":[0,0,0,0.9999999999999998],"name":"Pillow","mesh":11},{"translation":[0.07217174675552536,0.21163667452023416,0.16366864469177614],"scale":[0.0003151354401535996,0.0003151354401535996,0.00026437267389880305],"rotation":[-0.698847715337203,0.1077583907079712,0.10775839070797122,0.6988477153372031],"name":"Coffee Table","mesh":12}],"materials":[{"pbrMetallicRoughness":{"baseColorFactor":[1,1,1,1],"baseColorTexture":{"index":0,"extensions":{"KHR_texture_transform":{"offset":[0,0],"scale":[1,1],"rotation":0}},"texCoord":0},"metallicRoughnessTexture":{"index":1,"extensions":{"KHR_texture_transform":{"offset":[0,0],"scale":[1,1],"rotation":0}},"texCoord":0},"metallicFactor":0,"roughnessFactor":1},"name":"Mud 1","emissiveFactor":[0,0,0],"extensions":{},"alphaMode":"OPAQUE","doubleSided":false},{"pbrMetallicRoughness":{"baseColorFactor":[0.11392093340633272,0.2195197180748679,0.009696328701658229,1],"metallicFactor":0,"roughnessFactor":0.29},"name":"Plant_green_bob 1","emissiveFactor":[0,0,0],"extensions":{},"alphaMode":"OPAQUE","doubleSided":false},{"pbrMetallicRoughness":{"baseColorFactor":[0.15415226081216518,0.348864834082879,0.006040593654849813,1],"metallicFactor":0,"roughnessFactor":0.29},"name":"Plant_green_bob","emissiveFactor":[0,0,0],"extensions":{},"alphaMode":"OPAQUE","doubleSided":false},{"pbrMetallicRoughness":{"baseColorFactor":[1,1,1,1],"baseColorTexture":{"index":2,"extensions":{"KHR_texture_transform":{"offset":[0,0],"scale":[1,1],"rotation":0}},"texCoord":0},"metallicRoughnessTexture":{"index":3,"extensions":{"KHR_texture_transform":{"offset":[0,0],"scale":[1,1],"rotation":0}},"texCoord":0},"metallicFactor":1,"roughnessFactor":1},"name":"Concrete 1","emissiveFactor":[0,0,0],"extensions":{},"alphaMode":"OPAQUE","doubleSided":false},{"pbrMetallicRoughness":{"baseColorFactor":[1,1,1,1],"baseColorTexture":{"index":4,"extensions":{"KHR_texture_transform":{"offset":[0,0],"scale":[1,1],"rotation":0}},"texCoord":0},"metallicFactor":0,"roughnessFactor":1},"name":"Mud","emissiveFactor":[0,0,0],"extensions":{},"alphaMode":"OPAQUE","doubleSided":false},{"pbrMetallicRoughness":{"baseColorFactor":[0.4704402453042184,0.40982573843632336,0.33922333493532675,1],"metallicRoughnessTexture":{"index":5,"extensions":{"KHR_texture_transform":{"offset":[0,0],"scale":[4,4],"rotation":0}},"texCoord":0},"metallicFactor":1,"roughnessFactor":1},"name":"Belfast","emissiveFactor":[0,0,0],"extensions":{},"alphaMode":"OPAQUE","doubleSided":false},{"pbrMetallicRoughness":{"baseColorFactor":[0.03561436968491877,0.03561436968491877,0.03561436968491877,1],"metallicFactor":1,"roughnessFactor":0.2},"name":"Material #26 1","emissiveFactor":[0,0,0],"extensions":{},"alphaMode":"OPAQUE","doubleSided":false},{"pbrMetallicRoughness":{"baseColorFactor":[1,1,1,1],"baseColorTexture":{"index":6,"extensions":{"KHR_texture_transform":{"offset":[0,0],"scale":[5,5],"rotation":0}},"texCoord":0},"metallicRoughnessTexture":{"index":7,"extensions":{"KHR_texture_transform":{"offset":[0,0],"scale":[5,5],"rotation":0}},"texCoord":0},"metallicFactor":0,"roughnessFactor":1},"name":"Wood 2","emissiveFactor":[0,0,0],"extensions":{},"alphaMode":"OPAQUE","doubleSided":false},{"pbrMetallicRoughness":{"baseColorFactor":[0.6455552724449345,0.4819522370506978,0.23489525921588023,1],"metallicFactor":1,"roughnessFactor":0.2},"name":"Material #26","emissiveFactor":[0,0,0],"extensions":{},"alphaMode":"OPAQUE","doubleSided":false},{"pbrMetallicRoughness":{"baseColorFactor":[1,1,1,1],"baseColorTexture":{"index":8,"extensions":{"KHR_texture_transform":{"offset":[0,0],"scale":[10,15],"rotation":1.5707963267948966}},"texCoord":0},"metallicRoughnessTexture":{"index":7,"extensions":{"KHR_texture_transform":{"offset":[0,0],"scale":[10,15],"rotation":1.5707963267948966}},"texCoord":0},"metallicFactor":0,"roughnessFactor":1},"name":"Wood 3","normalTexture":{"index":9,"scale":1,"extensions":{"KHR_texture_transform":{"offset":[0,0],"scale":[10,15],"rotation":1.5707963267948966}},"texCoord":0},"emissiveFactor":[0,0,0],"extensions":{},"alphaMode":"OPAQUE","doubleSided":false},{"pbrMetallicRoughness":{"baseColorFactor":[0.7969165429079781,0.0370285141619602,0.0370285141619602,1],"metallicRoughnessTexture":{"index":11,"extensions":{"KHR_texture_transform":{"offset":[0,0],"scale":[5,5],"rotation":0}},"texCoord":0},"metallicFactor":0,"roughnessFactor":1},"name":"Red velvet","normalTexture":{"index":10,"scale":1,"extensions":{"KHR_texture_transform":{"offset":[0,0],"scale":[5,5],"rotation":0}},"texCoord":0},"emissiveFactor":[0,0,0],"extensions":{},"alphaMode":"OPAQUE","doubleSided":false},{"pbrMetallicRoughness":{"baseColorFactor":[1,0.4819522370506978,0.03994717100152559,1],"baseColorTexture":{"index":12,"extensions":{"KHR_texture_transform":{"offset":[0,0],"scale":[6,6],"rotation":0}},"texCoord":0},"metallicRoughnessTexture":{"index":13,"extensions":{"KHR_texture_transform":{"offset":[0,0],"scale":[6,6],"rotation":0}},"texCoord":0},"metallicFactor":0,"roughnessFactor":1},"name":"Fabric 2","normalTexture":{"index":10,"scale":1,"extensions":{"KHR_texture_transform":{"offset":[0,0],"scale":[6,6],"rotation":0}},"texCoord":0},"emissiveFactor":[0,0,0],"extensions":{},"alphaMode":"OPAQUE","doubleSided":false},{"pbrMetallicRoughness":{"baseColorFactor":[0.01991783843878572,0.01991783843878572,0.01991783843878572,1],"metallicFactor":0.68,"roughnessFactor":0.33},"name":"Eagle Eye","emissiveFactor":[0,0,0],"occlusionTexture":{"index":14,"strength":1,"extensions":{"KHR_texture_transform":{"offset":[0,0],"scale":[1,1],"rotation":0}},"texCoord":1},"extensions":{},"alphaMode":"OPAQUE","doubleSided":false}],"textures":[{"sampler":0,"source":0},{"sampler":0,"source":1},{"sampler":0,"source":2},{"sampler":0,"source":3},{"sampler":0,"source":4},{"sampler":0,"source":5},{"sampler":0,"source":6},{"sampler":0,"source":7},{"sampler":0,"source":8},{"sampler":0,"source":9},{"sampler":0,"source":10},{"sampler":0,"source":11},{"sampler":0,"source":12},{"sampler":0,"source":13},{"sampler":0,"source":14}],"images":[{"uri":"mud_ground_diffuse.jpg","mimeType":"image/jpeg"},{"uri":"metallicTexture&mud_ground_rough.jpg","mimeType":"image/jpeg"},{"uri":"Concrete_006_Color.jpg","mimeType":"image/jpeg"},{"uri":"Concrete_006_Metalic&roughnessTexture.jpg","mimeType":"image/jpeg"},{"uri":"mud_ground_diffuse_1.jpg","mimeType":"image/jpeg"},{"uri":"Concrete_008_Metalic&Concrete_006_Color.jpg","mimeType":"image/jpeg"},{"uri":"Wood_012_Color.jpg","mimeType":"image/jpeg"},{"uri":"metallicTexture&Wood_012_Roughness.jpg","mimeType":"image/jpeg"},{"uri":"Wood_012_Color_1.jpg","mimeType":"image/jpeg"},{"uri":"Wood_012_NormalMap.jpg","mimeType":"image/jpeg"},{"uri":"Fabric_009_Normal.jpg","mimeType":"image/jpeg"},{"uri":"metallicTexture&Fabric_009_Rough.jpg","mimeType":"image/jpeg"},{"uri":"Fabric_009_Color.jpg","mimeType":"image/jpeg"},{"uri":"metallicTexture&Fabric_009_Rough_1.jpg","mimeType":"image/jpeg"},{"uri":"table_DefaultMaterial_AO.png","mimeType":"image/png"}],"samplers":[{"wrapS":10497,"wrapT":10497}],"meshes":[{"primitives":[{"mode":4,"attributes":{"POSITION":1,"NORMAL":2,"TEXCOORD_0":3,"TEXCOORD_1":4},"material":0,"indices":0}]},{"primitives":[{"mode":4,"attributes":{"POSITION":6,"NORMAL":7,"TEXCOORD_0":8,"TEXCOORD_1":9},"material":1,"indices":5}]},{"primitives":[{"mode":4,"attributes":{"POSITION":11,"NORMAL":12,"TEXCOORD_0":13,"TEXCOORD_1":14},"material":2,"indices":10}]},{"primitives":[{"mode":4,"attributes":{"POSITION":16,"NORMAL":17,"TEXCOORD_0":18,"TEXCOORD_1":19},"material":3,"indices":15}]},{"primitives":[{"mode":4,"attributes":{"POSITION":21,"NORMAL":22,"TEXCOORD_0":23,"TEXCOORD_1":24},"material":4,"indices":20}]},{"primitives":[{"mode":4,"attributes":{"POSITION":26,"NORMAL":27,"TEXCOORD_0":28,"TEXCOORD_1":29},"material":5,"indices":25}]},{"primitives":[{"mode":4,"attributes":{"POSITION":31,"NORMAL":32,"TEXCOORD_0":33,"TEXCOORD_1":34},"material":6,"indices":30}]},{"primitives":[{"mode":4,"attributes":{"POSITION":36,"NORMAL":37,"TEXCOORD_0":38,"TEXCOORD_1":39},"material":7,"indices":35}]},{"primitives":[{"mode":4,"attributes":{"POSITION":41,"NORMAL":42,"TEXCOORD_0":43,"TEXCOORD_1":44},"material":8,"indices":40}]},{"primitives":[{"mode":4,"attributes":{"POSITION":46,"NORMAL":47,"TEXCOORD_0":48,"TEXCOORD_1":49},"material":9,"indices":45}]},{"primitives":[{"mode":4,"attributes":{"POSITION":51,"NORMAL":52,"TEXCOORD_0":53,"TEXCOORD_1":54},"material":10,"indices":50}]},{"primitives":[{"mode":4,"attributes":{"POSITION":56,"NORMAL":57,"TEXCOORD_0":58,"TEXCOORD_1":59},"material":11,"indices":55}]},{"primitives":[{"mode":4,"attributes":{"POSITION":61,"NORMAL":62,"TEXCOORD_0":63,"TEXCOORD_1":64},"material":12,"indices":60}]}],"accessors":[{"bufferView":0,"byteOffset":0,"componentType":5125,"count":8064,"type":"SCALAR"},{"bufferView":1,"byteOffset":0,"componentType":5126,"count":2458,"max":[426,426,5.908565521240234],"min":[-426,-426,-1.5709742307662964],"type":"VEC3"},{"bufferView":2,"byteOffset":0,"componentType":5126,"count":2458,"type":"VEC3"},{"bufferView":3,"byteOffset":0,"componentType":5126,"count":2458,"type":"VEC2"},{"bufferView":4,"byteOffset":0,"componentType":5126,"count":2458,"type":"VEC2"},{"bufferView":5,"byteOffset":0,"componentType":5125,"count":98424,"type":"SCALAR"},{"bufferView":6,"byteOffset":0,"componentType":5126,"count":37001,"max":[0.10810299962759018,0.36251100897789,0.14092999696731567],"min":[-0.07402099668979645,0.25437799096107483,-0.13874100148677826],"type":"VEC3"},{"bufferView":7,"byteOffset":0,"componentType":5126,"count":37001,"type":"VEC3"},{"bufferView":8,"byteOffset":0,"componentType":5126,"count":37001,"type":"VEC2"},{"bufferView":9,"byteOffset":0,"componentType":5126,"count":37001,"type":"VEC2"},{"bufferView":10,"byteOffset":0,"componentType":5125,"count":98424,"type":"SCALAR"},{"bufferView":11,"byteOffset":0,"componentType":5126,"count":36949,"max":[0.15896999835968018,0.3696120083332062,0.12301299721002579],"min":[-0.163782998919487,0.24397100508213043,-0.09501899778842926],"type":"VEC3"},{"bufferView":12,"byteOffset":0,"componentType":5126,"count":36949,"type":"VEC3"},{"bufferView":13,"byteOffset":0,"componentType":5126,"count":36949,"type":"VEC2"},{"bufferView":14,"byteOffset":0,"componentType":5126,"count":36949,"type":"VEC2"},{"bufferView":15,"byteOffset":0,"componentType":5125,"count":4224,"type":"SCALAR"},{"bufferView":16,"byteOffset":0,"componentType":5126,"count":987,"max":[0.07813330739736557,0.30436551570892334,0.08631133288145065],"min":[-0.08344430476427078,0.19814448058605194,-0.07526534050703049],"type":"VEC3"},{"bufferView":17,"byteOffset":0,"componentType":5126,"count":987,"type":"VEC3"},{"bufferView":18,"byteOffset":0,"componentType":5126,"count":987,"type":"VEC2"},{"bufferView":19,"byteOffset":0,"componentType":5126,"count":987,"type":"VEC2"},{"bufferView":20,"byteOffset":0,"componentType":5125,"count":720,"type":"SCALAR"},{"bufferView":21,"byteOffset":0,"componentType":5126,"count":178,"max":[0.07052399963140488,0.2961199879646301,0.07927300035953522],"min":[-0.07607100158929825,0.2892589867115021,-0.06738799810409546],"type":"VEC3"},{"bufferView":22,"byteOffset":0,"componentType":5126,"count":178,"type":"VEC3"},{"bufferView":23,"byteOffset":0,"componentType":5126,"count":178,"type":"VEC2"},{"bufferView":24,"byteOffset":0,"componentType":5126,"count":178,"type":"VEC2"},{"bufferView":25,"byteOffset":0,"componentType":5125,"count":42,"type":"SCALAR"},{"bufferView":26,"byteOffset":0,"componentType":5126,"count":18,"max":[1500,1700,1212.435546875],"min":[-1500,-1000,0],"type":"VEC3"},{"bufferView":27,"byteOffset":0,"componentType":5126,"count":18,"type":"VEC3"},{"bufferView":28,"byteOffset":0,"componentType":5126,"count":18,"type":"VEC2"},{"bufferView":29,"byteOffset":0,"componentType":5126,"count":18,"type":"VEC2"},{"bufferView":30,"byteOffset":0,"componentType":5125,"count":1272,"type":"SCALAR"},{"bufferView":31,"byteOffset":0,"componentType":5126,"count":576,"max":[664.6978149414062,442.14715576171875,-261.53448486328125],"min":[-101.71835327148438,-439.620849609375,-263.752197265625],"type":"VEC3"},{"bufferView":32,"byteOffset":0,"componentType":5126,"count":576,"type":"VEC3"},{"bufferView":33,"byteOffset":0,"componentType":5126,"count":576,"type":"VEC2"},{"bufferView":34,"byteOffset":0,"componentType":5126,"count":576,"type":"VEC2"},{"bufferView":35,"byteOffset":0,"componentType":5125,"count":1152,"type":"SCALAR"},{"bufferView":36,"byteOffset":0,"componentType":5126,"count":434,"max":[637.9052734375,427.75738525390625,98.589599609375],"min":[-95.90422058105469,-425.23101806640625,-183.12783813476562],"type":"VEC3"},{"bufferView":37,"byteOffset":0,"componentType":5126,"count":434,"type":"VEC3"},{"bufferView":38,"byteOffset":0,"componentType":5126,"count":434,"type":"VEC2"},{"bufferView":39,"byteOffset":0,"componentType":5126,"count":434,"type":"VEC2"},{"bufferView":40,"byteOffset":0,"componentType":5125,"count":1992,"type":"SCALAR"},{"bufferView":41,"byteOffset":0,"componentType":5126,"count":742,"max":[667.336181640625,445.02362060546875,-183.12567138671875],"min":[-105.26986694335938,-442.497314453125,-261.5345153808594],"type":"VEC3"},{"bufferView":42,"byteOffset":0,"componentType":5126,"count":742,"type":"VEC3"},{"bufferView":43,"byteOffset":0,"componentType":5126,"count":742,"type":"VEC2"},{"bufferView":44,"byteOffset":0,"componentType":5126,"count":742,"type":"VEC2"},{"bufferView":45,"byteOffset":0,"componentType":5125,"count":13176,"type":"SCALAR"},{"bufferView":46,"byteOffset":0,"componentType":5126,"count":3403,"max":[901.8645629882812,462.5124206542969,830.68115234375],"min":[-104.69805908203125,-462.1987609863281,-124.00222778320312],"type":"VEC3"},{"bufferView":47,"byteOffset":0,"componentType":5126,"count":3403,"type":"VEC3"},{"bufferView":48,"byteOffset":0,"componentType":5126,"count":3403,"type":"VEC2"},{"bufferView":49,"byteOffset":0,"componentType":5126,"count":3403,"type":"VEC2"},{"bufferView":50,"byteOffset":0,"componentType":5125,"count":124050,"type":"SCALAR"},{"bufferView":51,"byteOffset":0,"componentType":5126,"count":26566,"max":[742.3327026367188,467.4117736816406,685.579833984375],"min":[-337.5810241699219,-465.4009704589844,-280.7916564941406],"type":"VEC3"},{"bufferView":52,"byteOffset":0,"componentType":5126,"count":26566,"type":"VEC3"},{"bufferView":53,"byteOffset":0,"componentType":5126,"count":26566,"type":"VEC2"},{"bufferView":54,"byteOffset":0,"componentType":5126,"count":26566,"type":"VEC2"},{"bufferView":55,"byteOffset":0,"componentType":5125,"count":27696,"type":"SCALAR"},{"bufferView":56,"byteOffset":0,"componentType":5126,"count":5989,"max":[273.0885925292969,356.2054748535156,157.0657958984375],"min":[-255.8015594482422,-331.23724365234375,-255.24661254882812],"type":"VEC3"},{"bufferView":57,"byteOffset":0,"componentType":5126,"count":5989,"type":"VEC3"},{"bufferView":58,"byteOffset":0,"componentType":5126,"count":5989,"type":"VEC2"},{"bufferView":59,"byteOffset":0,"componentType":5126,"count":5989,"type":"VEC2"},{"bufferView":60,"byteOffset":0,"componentType":5125,"count":5784,"type":"SCALAR"},{"bufferView":61,"byteOffset":0,"componentType":5126,"count":2020,"max":[231.72125244140625,203.7528839111328,10.04754638671875],"min":[-232.07363891601562,-259.86614990234375,-775.803955078125],"type":"VEC3"},{"bufferView":62,"byteOffset":0,"componentType":5126,"count":2020,"type":"VEC3"},{"bufferView":63,"byteOffset":0,"componentType":5126,"count":2020,"type":"VEC2"},{"bufferView":64,"byteOffset":0,"componentType":5126,"count":2020,"type":"VEC2"}],"bufferViews":[{"buffer":0,"byteOffset":0,"byteLength":32256,"target":34963},{"buffer":0,"byteOffset":32256,"byteLength":29496,"target":34962},{"buffer":0,"byteOffset":61752,"byteLength":29496,"target":34962},{"buffer":0,"byteOffset":91248,"byteLength":19664,"target":34962},{"buffer":0,"byteOffset":110912,"byteLength":19664,"target":34962},{"buffer":0,"byteOffset":130576,"byteLength":393696,"target":34963},{"buffer":0,"byteOffset":524272,"byteLength":444012,"target":34962},{"buffer":0,"byteOffset":968284,"byteLength":444012,"target":34962},{"buffer":0,"byteOffset":1412296,"byteLength":296008,"target":34962},{"buffer":0,"byteOffset":1708304,"byteLength":296008,"target":34962},{"buffer":0,"byteOffset":2004312,"byteLength":393696,"target":34963},{"buffer":0,"byteOffset":2398008,"byteLength":443388,"target":34962},{"buffer":0,"byteOffset":2841396,"byteLength":443388,"target":34962},{"buffer":0,"byteOffset":3284784,"byteLength":295592,"target":34962},{"buffer":0,"byteOffset":3580376,"byteLength":295592,"target":34962},{"buffer":0,"byteOffset":3875968,"byteLength":16896,"target":34963},{"buffer":0,"byteOffset":3892864,"byteLength":11844,"target":34962},{"buffer":0,"byteOffset":3904708,"byteLength":11844,"target":34962},{"buffer":0,"byteOffset":3916552,"byteLength":7896,"target":34962},{"buffer":0,"byteOffset":3924448,"byteLength":7896,"target":34962},{"buffer":0,"byteOffset":3932344,"byteLength":2880,"target":34963},{"buffer":0,"byteOffset":3935224,"byteLength":2136,"target":34962},{"buffer":0,"byteOffset":3937360,"byteLength":2136,"target":34962},{"buffer":0,"byteOffset":3939496,"byteLength":1424,"target":34962},{"buffer":0,"byteOffset":3940920,"byteLength":1424,"target":34962},{"buffer":0,"byteOffset":3942344,"byteLength":168,"target":34963},{"buffer":0,"byteOffset":3942512,"byteLength":216,"target":34962},{"buffer":0,"byteOffset":3942728,"byteLength":216,"target":34962},{"buffer":0,"byteOffset":3942944,"byteLength":144,"target":34962},{"buffer":0,"byteOffset":3943088,"byteLength":144,"target":34962},{"buffer":0,"byteOffset":3943232,"byteLength":5088,"target":34963},{"buffer":0,"byteOffset":3948320,"byteLength":6912,"target":34962},{"buffer":0,"byteOffset":3955232,"byteLength":6912,"target":34962},{"buffer":0,"byteOffset":3962144,"byteLength":4608,"target":34962},{"buffer":0,"byteOffset":3966752,"byteLength":4608,"target":34962},{"buffer":0,"byteOffset":3971360,"byteLength":4608,"target":34963},{"buffer":0,"byteOffset":3975968,"byteLength":5208,"target":34962},{"buffer":0,"byteOffset":3981176,"byteLength":5208,"target":34962},{"buffer":0,"byteOffset":3986384,"byteLength":3472,"target":34962},{"buffer":0,"byteOffset":3989856,"byteLength":3472,"target":34962},{"buffer":0,"byteOffset":3993328,"byteLength":7968,"target":34963},{"buffer":0,"byteOffset":4001296,"byteLength":8904,"target":34962},{"buffer":0,"byteOffset":4010200,"byteLength":8904,"target":34962},{"buffer":0,"byteOffset":4019104,"byteLength":5936,"target":34962},{"buffer":0,"byteOffset":4025040,"byteLength":5936,"target":34962},{"buffer":0,"byteOffset":4030976,"byteLength":52704,"target":34963},{"buffer":0,"byteOffset":4083680,"byteLength":40836,"target":34962},{"buffer":0,"byteOffset":4124516,"byteLength":40836,"target":34962},{"buffer":0,"byteOffset":4165352,"byteLength":27224,"target":34962},{"buffer":0,"byteOffset":4192576,"byteLength":27224,"target":34962},{"buffer":0,"byteOffset":4219800,"byteLength":496200,"target":34963},{"buffer":0,"byteOffset":4716000,"byteLength":318792,"target":34962},{"buffer":0,"byteOffset":5034792,"byteLength":318792,"target":34962},{"buffer":0,"byteOffset":5353584,"byteLength":212528,"target":34962},{"buffer":0,"byteOffset":5566112,"byteLength":212528,"target":34962},{"buffer":0,"byteOffset":5778640,"byteLength":110784,"target":34963},{"buffer":0,"byteOffset":5889424,"byteLength":71868,"target":34962},{"buffer":0,"byteOffset":5961292,"byteLength":71868,"target":34962},{"buffer":0,"byteOffset":6033160,"byteLength":47912,"target":34962},{"buffer":0,"byteOffset":6081072,"byteLength":47912,"target":34962},{"buffer":0,"byteOffset":6128984,"byteLength":23136,"target":34963},{"buffer":0,"byteOffset":6152120,"byteLength":24240,"target":34962},{"buffer":0,"byteOffset":6176360,"byteLength":24240,"target":34962},{"buffer":0,"byteOffset":6200600,"byteLength":16160,"target":34962},{"buffer":0,"byteOffset":6216760,"byteLength":16160,"target":34962}],"scene":0,"scenes":[{"nodes":[0,9,17],"name":"Demo - Arm chair"}],"extensionsUsed":["KHR_texture_transform"],"buffers":[{"byteLength":6232920,"uri":"Demo.bin"}]}