{
  "accessors": [
    {
      "bufferView": 2,
      "componentType": 5126,
      "count": 373,
      "max": [
        -10.346343994140625,
        4.676939964294434,
        8.880794525146484
      ],
      "min": [
        -11.085725784301758,
        4.609062194824219,
        8.141413688659668
      ],
      "type": "VEC3"
    },
    {
      "bufferView": 2,
      "byteOffset": 4476,
      "componentType": 5126,
      "count": 373,
      "max": [
        1.0,
        1.0,
        1.0
      ],
      "min": [
        -1.0,
        -0.9905211925506592,
        -1.0
      ],
      "type": "VEC3"
    },
    {
      "bufferView": 1,
      "componentType": 5126,
      "count": 373,
      "max": [
        0.0,
        0.0
      ],
      "min": [
        0.0,
        0.0
      ],
      "type": "VEC2"
    },
    {
      "bufferView": 0,
      "componentType": 5125,
      "count": 1422,
      "type": "SCALAR"
    },
    {
      "bufferView": 2,
      "byteOffset": 8952,
      "componentType": 5126,
      "count": 192,
      "max": [
        -10.36729621887207,
        4.612381935119629,
        8.859843254089355
      ],
      "min": [
        -11.064773559570313,
        4.5828118324279785,
        8.162365913391113
      ],
      "type": "VEC3"
    },
    {
      "bufferView": 2,
      "byteOffset": 11256,
      "componentType": 5126,
      "count": 192,
      "max": [
        0.9303373694419861,
        -0.3666040301322937,
        0.9303601384162903
      ],
      "min": [
        -0.9303567409515381,
        -0.9911379218101501,
        -0.9303552508354187
      ],
      "type": "VEC3"
    },
    {
      "bufferView": 1,
      "byteOffset": 2984,
      "componentType": 5126,
      "count": 192,
      "max": [
        0.0,
        0.0
      ],
      "min": [
        0.0,
        0.0
      ],
      "type": "VEC2"
    },
    {
      "bufferView": 0,
      "byteOffset": 5688,
      "componentType": 5125,
      "count": 858,
      "type": "SCALAR"
    },
    {
      "bufferView": 2,
      "byteOffset": 13560,
      "componentType": 5126,
      "count": 38,
      "max": [
        8.048901557922363,
        0.0,
        23.303787231445313
      ],
      "min": [
        -9.714510917663574,
        0.0,
        -5.763007164001465
      ],
      "type": "VEC3"
    },
    {
      "bufferView": 2,
      "byteOffset": 14016,
      "componentType": 5126,
      "count": 38,
      "max": [
        0.0,
        1.0,
        0.0
      ],
      "min": [
        0.0,
        -1.0,
        0.0
      ],
      "type": "VEC3"
    },
    {
      "bufferView": 3,
      "componentType": 5126,
      "count": 38,
      "max": [
        1.0,
        0.0,
        4.587075090967119e-05,
        1.0
      ],
      "min": [
        1.0,
        0.0,
        -5.8377299865242094e-05,
        -1.0
      ],
      "type": "VEC4"
    },
    {
      "bufferView": 1,
      "byteOffset": 4520,
      "componentType": 5126,
      "count": 38,
      "max": [
        2.2540464401245117,
        2.519066333770752
      ],
      "min": [
        -1.4454375505447388,
        -3.53444766998291
      ],
      "type": "VEC2"
    },
    {
      "bufferView": 1,
      "byteOffset": 4824,
      "componentType": 5126,
      "count": 38,
      "max": [
        2.2540464401245117,
        2.519066333770752
      ],
      "min": [
        -1.4454375505447388,
        -3.53444766998291
      ],
      "type": "VEC2"
    },
    {
      "bufferView": 1,
      "byteOffset": 5128,
      "componentType": 5126,
      "count": 38,
      "max": [
        2.2540464401245117,
        2.519066333770752
      ],
      "min": [
        -1.4454375505447388,
        -3.53444766998291
      ],
      "type": "VEC2"
    },
    {
      "bufferView": 0,
      "byteOffset": 9120,
      "componentType": 5125,
      "count": 102,
      "type": "SCALAR"
    },
    {
      "bufferView": 2,
      "byteOffset": 14472,
      "componentType": 5126,
      "count": 730,
      "max": [
        8.048901557922363,
        4.642870903015137,
        23.373106002807617
      ],
      "min": [
        -9.738219261169434,
        0.0,
        -5.763007164001465
      ],
      "type": "VEC3"
    },
    {
      "bufferView": 2,
      "byteOffset": 23232,
      "componentType": 5126,
      "count": 730,
      "max": [
        1.0,
        1.0,
        1.0
      ],
      "min": [
        -1.0,
        -1.0,
        -1.0
      ],
      "type": "VEC3"
    },
    {
      "bufferView": 1,
      "byteOffset": 5432,
      "componentType": 5126,
      "count": 730,
      "max": [
        1.4247959852218628,
        1.1621530055999756
      ],
      "min": [
        -0.34237799048423767,
        -0.6967229843139648
      ],
      "type": "VEC2"
    },
    {
      "bufferView": 0,
      "byteOffset": 9528,
      "componentType": 5125,
      "count": 1176,
      "type": "SCALAR"
    }
  ],
  "asset": {
    "extras": {
      "author": "INTERIA (https://sketchfab.com/noobsipahi724)",
      "license": "CC-BY-4.0 (http://creativecommons.org/licenses/by/4.0/)",
      "source": "https://sketchfab.com/3d-models/interior-free-f2dd8608de934584b3983628e853540a",
      "title": "Interior (Free)"
    },
    "generator": "Sketchfab-15.49.0",
    "version": "2.0"
  },
  "bufferViews": [
    {
      "buffer": 0,
      "byteLength": 14232,
      "name": "floatBufferViews",
      "target": 34963
    },
    {
      "buffer": 0,
      "byteLength": 11272,
      "byteOffset": 14232,
      "byteStride": 8,
      "name": "floatBufferViews",
      "target": 34962
    },
    {
      "buffer": 0,
      "byteLength": 31992,
      "byteOffset": 25504,
      "byteStride": 12,
      "name": "floatBufferViews",
      "target": 34962
    },
    {
      "buffer": 0,
      "byteLength": 608,
      "byteOffset": 57496,
      "byteStride": 16,
      "name": "floatBufferViews",
      "target": 34962
    }
  ],
  "buffers": [
    {
      "byteLength": 58104,
      "uri": "scene.bin"
    }
  ],
  "images": [
    {
      "uri": "textures/FLOOR_baseColor.png"
    },
    {
      "uri": "textures/FLOOR_normal.png"
    }
  ],
  "materials": [
    {
      "doubleSided": true,
      "name": "plastic",
      "pbrMetallicRoughness": {
        "metallicFactor": 0.0,
        "roughnessFactor": 0.9289655060889805
      }
    },
    {
      "doubleSided": true,
      "name": "emission",
      "pbrMetallicRoughness": {
        "metallicFactor": 0.0,
        "roughnessFactor": 0.7763932022500211
      }
    },
    {
      "doubleSided": true,
      "name": "FLOOR",
      "normalTexture": {
        "index": 1
      },
      "pbrMetallicRoughness": {
        "baseColorTexture": {
          "index": 0
        },
        "metallicFactor": 0.0,
        "roughnessFactor": 0.8040408205773457
      }
    },
    {
      "doubleSided": true,
      "name": "WALL",
      "pbrMetallicRoughness": {
        "baseColorFactor": [
          0.8,
          0.8,
          0.8,
          1.0
        ],
        "metallicFactor": 0.0,
        "roughnessFactor": 0.8211145618000169
      }
    }
  ],
  "meshes": [
    {
      "name": "PinLight_plastic_0",
      "primitives": [
        {
          "attributes": {
            "NORMAL": 1,
            "POSITION": 0,
            "TEXCOORD_0": 2
          },
          "indices": 3,
          "material": 0,
          "mode": 4
        }
      ]
    },
    {
      "name": "PinLight_emission_0",
      "primitives": [
        {
          "attributes": {
            "NORMAL": 5,
            "POSITION": 4,
            "TEXCOORD_0": 6
          },
          "indices": 7,
          "material": 1,
          "mode": 4
        }
      ]
    },
    {
      "name": "Room_FLOOR_0",
      "primitives": [
        {
          "attributes": {
            "NORMAL": 9,
            "POSITION": 8,
            "TANGENT": 10,
            "TEXCOORD_0": 11,
            "TEXCOORD_1": 12,
            "TEXCOORD_2": 13
          },
          "indices": 14,
          "material": 2,
          "mode": 4
        }
      ]
    },
    {
      "name": "Room_WALL_0",
      "primitives": [
        {
          "attributes": {
            "NORMAL": 16,
            "POSITION": 15,
            "TEXCOORD_0": 17
          },
          "indices": 18,
          "material": 3,
          "mode": 4
        }
      ]
    }
  ],
  "nodes": [
    {
      "children": [
        1
      ],
      "matrix": [
        1.0,
        0.0,
        0.0,
        0.0,
        0.0,
        2.220446049250313e-16,
        -1.0,
        0.0,
        0.0,
        1.0,
        2.220446049250313e-16,
        0.0,
        0.0,
        0.0,
        0.0,
        1.0
      ],
      "name": "Sketchfab_model"
    },
    {
      "children": [
        2
      ],
      "matrix": [
        0.009999999776482582,
        0.0,
        0.0,
        0.0,
        0.0,
        0.0,
        0.009999999776482582,
        0.0,
        0.0,
        -0.009999999776482582,
        0.0,
        0.0,
        0.0,
        0.0,
        0.0,
        1.0
      ],
      "name": "INTERIOR.fbx"
    },
    {
      "children": [
        3,
        6,
        8,
        11
      ],
      "name": "RootNode"
    },
    {
      "children": [
        4
      ],
      "matrix": [
        -29.086477364379697,
        -5.518905590722295,
        -95.51711910171437,
        0.0,
        56.63932069164076,
        79.46722539115298,
        -21.839126361216156,
        0.0,
        77.11007920637729,
        -60.452475336912016,
        -19.988344364310564,
        0.0,
        407.6245422363281,
        590.38623046875,
        -100.54539489746094,
        1.0
      ],
      "name": "Light"
    },
    {
      "children": [
        5
      ],
      "matrix": [
        1.0,
        0.0,
        0.0,
        0.0,
        0.0,
        2.220446049250313e-16,
        1.0,
        0.0,
        0.0,
        -1.0,
        2.220446049250313e-16,
        0.0,
        0.0,
        0.0,
        0.0,
        1.0
      ],
      "name": "Object_4"
    },
    {
      "name": "Object_5"
    },
    {
      "children": [
        7
      ],
      "matrix": [
        -65.1558127516791,
        -44.52713915455176,
        -61.417049289096546,
        0.0,
        -32.401349332924404,
        89.53957282709818,
        -30.5420854760369,
        0.0,
        68.59207001076241,
        8.666908837178815e-06,
        -72.76761921184274,
        0.0,
        735.88916015625,
        495.8309326171875,
        692.5791015625,
        1.0
      ],
      "name": "Camera"
    },
    {
      "name": "Object_7"
    },
    {
      "children": [
        9,
        10
      ],
      "matrix": [
        100.0,
        0.0,
        0.0,
        0.0,
        0.0,
        99.99999999999972,
        -7.5497901264043296e-06,
        0.0,
        0.0,
        7.5497901264043296e-06,
        99.99999999999972,
        0.0,
        0.0,
        -49.207191467285156,
        0.0,
        1.0
      ],
      "name": "PinLight"
    },
    {
      "mesh": 0,
      "name": "PinLight_plastic_0"
    },
    {
      "mesh": 1,
      "name": "PinLight_emission_0"
    },
    {
      "children": [
        12,
        13
      ],
      "matrix": [
        100.0,
        0.0,
        0.0,
        0.0,
        0.0,
        99.99999999999972,
        -7.5497901264043296e-06,
        0.0,
        0.0,
        7.5497901264043296e-06,
        99.99999999999972,
        0.0,
        0.0,
        0.0,
        0.0,
        1.0
      ],
      "name": "Room"
    },
    {
      "mesh": 2,
      "name": "Room_FLOOR_0"
    },
    {
      "mesh": 3,
      "name": "Room_WALL_0"
    }
  ],
  "samplers": [
    {
      "magFilter": 9729,
      "minFilter": 9987,
      "wrapS": 10497,
      "wrapT": 10497
    }
  ],
  "scene": 0,
  "scenes": [
    {
      "name": "Sketchfab_Scene",
      "nodes": [
        0
      ]
    }
  ],
  "textures": [
    {
      "sampler": 0,
      "source": 0
    },
    {
      "sampler": 0,
      "source": 1
    }
  ]
}
