{"asset":{"version":"2.0","generator":"VECTARY"},"nodes":[{"translation":[0.07701999999999999,0.2142929712246133,0.17955642260121324],"scale":[0.0002158569258861073,0.0002067996887535147,0.00015863271554954637],"rotation":[-0.7071067811865475,0,0,0.7071067811865476],"name":"Green plant monstera","mesh":0},{"translation":[0.017643594145094588,-0.0009940629804201038,-0.04564442689757754],"scale":[0.0009287888027180879,0.0009287888027180879,0.0009287888027180879],"rotation":[-0.698847715337203,0.1077583907079712,0.10775839070797122,0.6988477153372031],"name":"Chair","children":[2,6,7,8]},{"translation":[38.13788168498353,51.675763087336406,6.320508068317608],"scale":[0.4,0.4,0.4],"rotation":[0,0,0,1],"name":"Legs","children":[3,4,5]},{"translation":[-281.0331573486328,-1.263153076171875,263.752197265625],"scale":[1,1,1],"rotation":[0,0,0,1],"name":"Bottom piece","mesh":1},{"translation":[-281.0331573486328,-1.263153076171875,263.752197265625],"scale":[1,1,1],"rotation":[0,0,0,1],"name":"Wood part","mesh":2},{"translation":[-281.0331573486328,-1.263153076171875,263.752197265625],"scale":[1,1,1],"rotation":[0,0,0,1],"name":"Gold piece","mesh":3},{"translation":[-70.06529824665708,51.91027999407467,147.81557642769266],"scale":[0.39999999999999997,0.39999999999999997,0.4],"rotation":[0,0,0,1],"name":"Plywood","mesh":4},{"translation":[-9.536807035719596,51.27382216936766,214.34853541206758],"scale":[0.4,0.4,0.4],"rotation":[0,0,0,1],"name":"Seat","mesh":5},{"translation":[62.43424398967106,102.69136672503163,268.4711902174883],"scale":[0.27471759999999995,0.27471759999999995,0.27471759999999995],"rotation":[0,0,0,0.9999999999999998],"name":"Pillow","mesh":6},{"translation":[0.07217174675552536,0.21163667452023416,0.16366864469177614],"scale":[0.0003151354401535996,0.0003151354401535996,0.00026437267389880305],"rotation":[-0.698847715337203,0.1077583907079712,0.10775839070797122,0.6988477153372031],"name":"Coffee Table","mesh":7}],"materials":[{"pbrMetallicRoughness":{"baseColorFactor":[1,1,1,1],"baseColorTexture":{"index":0,"extensions":{"KHR_texture_transform":{"offset":[0,0],"scale":[1,1],"rotation":0}},"texCoord":0},"metallicRoughnessTexture":{"index":1,"extensions":{"KHR_texture_transform":{"offset":[0,0],"scale":[1,1],"rotation":0}},"texCoord":0},"metallicFactor":0,"roughnessFactor":1},"name":"Amulet","emissiveFactor":[0,0,0],"extensions":{},"alphaMode":"MASK","alphaCutoff":0.5,"doubleSided":false},{"pbrMetallicRoughness":{"baseColorFactor":[0.03561436968491877,0.03561436968491877,0.03561436968491877,1],"metallicFactor":1,"roughnessFactor":0.2},"name":"Material #26 1","emissiveFactor":[0,0,0],"extensions":{},"alphaMode":"OPAQUE","doubleSided":false},{"pbrMetallicRoughness":{"baseColorFactor":[1,1,1,1],"baseColorTexture":{"index":2,"extensions":{"KHR_texture_transform":{"offset":[0,0],"scale":[5,5],"rotation":0}},"texCoord":0},"metallicRoughnessTexture":{"index":3,"extensions":{"KHR_texture_transform":{"offset":[0,0],"scale":[5,5],"rotation":0}},"texCoord":0},"metallicFactor":0,"roughnessFactor":1},"name":"Wood 2","emissiveFactor":[0,0,0],"extensions":{},"alphaMode":"OPAQUE","doubleSided":false},{"pbrMetallicRoughness":{"baseColorFactor":[0.6455552724449345,0.4819522370506978,0.23489525921588023,1],"metallicFactor":1,"roughnessFactor":0.2},"name":"Material #26","emissiveFactor":[0,0,0],"extensions":{},"alphaMode":"OPAQUE","doubleSided":false},{"pbrMetallicRoughness":{"baseColorFactor":[1,1,1,1],"baseColorTexture":{"index":4,"extensions":{"KHR_texture_transform":{"offset":[0,0],"scale":[10,15],"rotation":1.5707963267948966}},"texCoord":0},"metallicRoughnessTexture":{"index":3,"extensions":{"KHR_texture_transform":{"offset":[0,0],"scale":[10,15],"rotation":1.5707963267948966}},"texCoord":0},"metallicFactor":0,"roughnessFactor":1},"name":"Wood 3","normalTexture":{"index":5,"scale":1,"extensions":{"KHR_texture_transform":{"offset":[0,0],"scale":[10,15],"rotation":1.5707963267948966}},"texCoord":0},"emissiveFactor":[0,0,0],"extensions":{},"alphaMode":"OPAQUE","doubleSided":false},{"pbrMetallicRoughness":{"baseColorFactor":[0.7969165429079781,0.0370285141619602,0.0370285141619602,1],"metallicRoughnessTexture":{"index":7,"extensions":{"KHR_texture_transform":{"offset":[0,0],"scale":[5,5],"rotation":0}},"texCoord":0},"metallicFactor":0,"roughnessFactor":1},"name":"Red velvet","normalTexture":{"index":6,"scale":1,"extensions":{"KHR_texture_transform":{"offset":[0,0],"scale":[5,5],"rotation":0}},"texCoord":0},"emissiveFactor":[0,0,0],"extensions":{},"alphaMode":"OPAQUE","doubleSided":false},{"pbrMetallicRoughness":{"baseColorFactor":[1,0.4819522370506978,0.03994717100152559,1],"baseColorTexture":{"index":8,"extensions":{"KHR_texture_transform":{"offset":[0,0],"scale":[6,6],"rotation":0}},"texCoord":0},"metallicRoughnessTexture":{"index":9,"extensions":{"KHR_texture_transform":{"offset":[0,0],"scale":[6,6],"rotation":0}},"texCoord":0},"metallicFactor":0,"roughnessFactor":1},"name":"Fabric 2","normalTexture":{"index":6,"scale":1,"extensions":{"KHR_texture_transform":{"offset":[0,0],"scale":[6,6],"rotation":0}},"texCoord":0},"emissiveFactor":[0,0,0],"extensions":{},"alphaMode":"OPAQUE","doubleSided":false},{"pbrMetallicRoughness":{"baseColorFactor":[0.01991783843878572,0.01991783843878572,0.01991783843878572,1],"metallicFactor":0.68,"roughnessFactor":0.33},"name":"Eagle Eye","emissiveFactor":[0,0,0],"occlusionTexture":{"index":10,"strength":1,"extensions":{"KHR_texture_transform":{"offset":[0,0],"scale":[1,1],"rotation":0}},"texCoord":1},"extensions":{},"alphaMode":"OPAQUE","doubleSided":false}],"textures":[{"sampler":0,"source":0},{"sampler":0,"source":1},{"sampler":0,"source":2},{"sampler":0,"source":3},{"sampler":0,"source":4},{"sampler":0,"source":5},{"sampler":0,"source":6},{"sampler":0,"source":7},{"sampler":0,"source":8},{"sampler":0,"source":9},{"sampler":0,"source":10}],"images":[{"uri":"monstera_base&monstera_base.png","mimeType":"image/png"},{"uri":"metallicTexture&monstera_roughtness.jpg","mimeType":"image/jpeg"},{"uri":"Wood_012_Color.jpg","mimeType":"image/jpeg"},{"uri":"metallicTexture&Wood_012_Roughness.jpg","mimeType":"image/jpeg"},{"uri":"Wood_012_Color_1.jpg","mimeType":"image/jpeg"},{"uri":"Wood_012_NormalMap.jpg","mimeType":"image/jpeg"},{"uri":"Fabric_009_Normal.jpg","mimeType":"image/jpeg"},{"uri":"metallicTexture&Fabric_009_Rough.jpg","mimeType":"image/jpeg"},{"uri":"Fabric_009_Color.jpg","mimeType":"image/jpeg"},{"uri":"metallicTexture&Fabric_009_Rough_1.jpg","mimeType":"image/jpeg"},{"uri":"table_DefaultMaterial_AO.png","mimeType":"image/png"}],"samplers":[{"wrapS":10497,"wrapT":10497}],"meshes":[{"primitives":[{"mode":4,"attributes":{"POSITION":1,"NORMAL":2,"TEXCOORD_0":3},"material":0,"indices":0}]},{"primitives":[{"mode":4,"attributes":{"POSITION":5,"NORMAL":6,"TEXCOORD_0":7,"TEXCOORD_1":8},"material":1,"indices":4}]},{"primitives":[{"mode":4,"attributes":{"POSITION":10,"NORMAL":11,"TEXCOORD_0":12,"TEXCOORD_1":13},"material":2,"indices":9}]},{"primitives":[{"mode":4,"attributes":{"POSITION":15,"NORMAL":16,"TEXCOORD_0":17,"TEXCOORD_1":18},"material":3,"indices":14}]},{"primitives":[{"mode":4,"attributes":{"POSITION":20,"NORMAL":21,"TEXCOORD_0":22,"TEXCOORD_1":23},"material":4,"indices":19}]},{"primitives":[{"mode":4,"attributes":{"POSITION":25,"NORMAL":26,"TEXCOORD_0":27,"TEXCOORD_1":28},"material":5,"indices":24}]},{"primitives":[{"mode":4,"attributes":{"POSITION":30,"NORMAL":31,"TEXCOORD_0":32,"TEXCOORD_1":33},"material":6,"indices":29}]},{"primitives":[{"mode":4,"attributes":{"POSITION":35,"NORMAL":36,"TEXCOORD_0":37,"TEXCOORD_1":38},"material":7,"indices":34}]}],"accessors":[{"bufferView":0,"byteOffset":0,"componentType":5125,"count":26394,"type":"SCALAR"},{"bufferView":1,"byteOffset":0,"componentType":5126,"count":5571,"max":[585.9900512695312,563.54052734375,1327.5947265625],"min":[-585.9900512695312,-563.54052734375,0],"type":"VEC3"},{"bufferView":2,"byteOffset":0,"componentType":5126,"count":5571,"type":"VEC3"},{"bufferView":3,"byteOffset":0,"componentType":5126,"count":5571,"type":"VEC2"},{"bufferView":4,"byteOffset":0,"componentType":5125,"count":1272,"type":"SCALAR"},{"bufferView":5,"byteOffset":0,"componentType":5126,"count":576,"max":[664.6978149414062,442.14715576171875,-261.53448486328125],"min":[-101.71835327148438,-439.620849609375,-263.752197265625],"type":"VEC3"},{"bufferView":6,"byteOffset":0,"componentType":5126,"count":576,"type":"VEC3"},{"bufferView":7,"byteOffset":0,"componentType":5126,"count":576,"type":"VEC2"},{"bufferView":8,"byteOffset":0,"componentType":5126,"count":576,"type":"VEC2"},{"bufferView":9,"byteOffset":0,"componentType":5125,"count":1152,"type":"SCALAR"},{"bufferView":10,"byteOffset":0,"componentType":5126,"count":434,"max":[637.9052734375,427.75738525390625,98.589599609375],"min":[-95.90422058105469,-425.23101806640625,-183.12783813476562],"type":"VEC3"},{"bufferView":11,"byteOffset":0,"componentType":5126,"count":434,"type":"VEC3"},{"bufferView":12,"byteOffset":0,"componentType":5126,"count":434,"type":"VEC2"},{"bufferView":13,"byteOffset":0,"componentType":5126,"count":434,"type":"VEC2"},{"bufferView":14,"byteOffset":0,"componentType":5125,"count":1992,"type":"SCALAR"},{"bufferView":15,"byteOffset":0,"componentType":5126,"count":742,"max":[667.336181640625,445.02362060546875,-183.12567138671875],"min":[-105.26986694335938,-442.497314453125,-261.5345153808594],"type":"VEC3"},{"bufferView":16,"byteOffset":0,"componentType":5126,"count":742,"type":"VEC3"},{"bufferView":17,"byteOffset":0,"componentType":5126,"count":742,"type":"VEC2"},{"bufferView":18,"byteOffset":0,"componentType":5126,"count":742,"type":"VEC2"},{"bufferView":19,"byteOffset":0,"componentType":5125,"count":13176,"type":"SCALAR"},{"bufferView":20,"byteOffset":0,"componentType":5126,"count":3403,"max":[901.8645629882812,462.5124206542969,830.68115234375],"min":[-104.69805908203125,-462.1987609863281,-124.00222778320312],"type":"VEC3"},{"bufferView":21,"byteOffset":0,"componentType":5126,"count":3403,"type":"VEC3"},{"bufferView":22,"byteOffset":0,"componentType":5126,"count":3403,"type":"VEC2"},{"bufferView":23,"byteOffset":0,"componentType":5126,"count":3403,"type":"VEC2"},{"bufferView":24,"byteOffset":0,"componentType":5125,"count":124050,"type":"SCALAR"},{"bufferView":25,"byteOffset":0,"componentType":5126,"count":26566,"max":[742.3327026367188,467.4117736816406,685.579833984375],"min":[-337.5810241699219,-465.4009704589844,-280.7916564941406],"type":"VEC3"},{"bufferView":26,"byteOffset":0,"componentType":5126,"count":26566,"type":"VEC3"},{"bufferView":27,"byteOffset":0,"componentType":5126,"count":26566,"type":"VEC2"},{"bufferView":28,"byteOffset":0,"componentType":5126,"count":26566,"type":"VEC2"},{"bufferView":29,"byteOffset":0,"componentType":5125,"count":27696,"type":"SCALAR"},{"bufferView":30,"byteOffset":0,"componentType":5126,"count":5989,"max":[273.0885925292969,356.2054748535156,157.0657958984375],"min":[-255.8015594482422,-331.23724365234375,-255.24661254882812],"type":"VEC3"},{"bufferView":31,"byteOffset":0,"componentType":5126,"count":5989,"type":"VEC3"},{"bufferView":32,"byteOffset":0,"componentType":5126,"count":5989,"type":"VEC2"},{"bufferView":33,"byteOffset":0,"componentType":5126,"count":5989,"type":"VEC2"},{"bufferView":34,"byteOffset":0,"componentType":5125,"count":5784,"type":"SCALAR"},{"bufferView":35,"byteOffset":0,"componentType":5126,"count":2020,"max":[231.72125244140625,203.7528839111328,10.04754638671875],"min":[-232.07363891601562,-259.86614990234375,-775.803955078125],"type":"VEC3"},{"bufferView":36,"byteOffset":0,"componentType":5126,"count":2020,"type":"VEC3"},{"bufferView":37,"byteOffset":0,"componentType":5126,"count":2020,"type":"VEC2"},{"bufferView":38,"byteOffset":0,"componentType":5126,"count":2020,"type":"VEC2"}],"bufferViews":[{"buffer":0,"byteOffset":0,"byteLength":105576,"target":34963},{"buffer":0,"byteOffset":105576,"byteLength":66852,"target":34962},{"buffer":0,"byteOffset":172428,"byteLength":66852,"target":34962},{"buffer":0,"byteOffset":239280,"byteLength":44568,"target":34962},{"buffer":0,"byteOffset":283848,"byteLength":5088,"target":34963},{"buffer":0,"byteOffset":288936,"byteLength":6912,"target":34962},{"buffer":0,"byteOffset":295848,"byteLength":6912,"target":34962},{"buffer":0,"byteOffset":302760,"byteLength":4608,"target":34962},{"buffer":0,"byteOffset":307368,"byteLength":4608,"target":34962},{"buffer":0,"byteOffset":311976,"byteLength":4608,"target":34963},{"buffer":0,"byteOffset":316584,"byteLength":5208,"target":34962},{"buffer":0,"byteOffset":321792,"byteLength":5208,"target":34962},{"buffer":0,"byteOffset":327000,"byteLength":3472,"target":34962},{"buffer":0,"byteOffset":330472,"byteLength":3472,"target":34962},{"buffer":0,"byteOffset":333944,"byteLength":7968,"target":34963},{"buffer":0,"byteOffset":341912,"byteLength":8904,"target":34962},{"buffer":0,"byteOffset":350816,"byteLength":8904,"target":34962},{"buffer":0,"byteOffset":359720,"byteLength":5936,"target":34962},{"buffer":0,"byteOffset":365656,"byteLength":5936,"target":34962},{"buffer":0,"byteOffset":371592,"byteLength":52704,"target":34963},{"buffer":0,"byteOffset":424296,"byteLength":40836,"target":34962},{"buffer":0,"byteOffset":465132,"byteLength":40836,"target":34962},{"buffer":0,"byteOffset":505968,"byteLength":27224,"target":34962},{"buffer":0,"byteOffset":533192,"byteLength":27224,"target":34962},{"buffer":0,"byteOffset":560416,"byteLength":496200,"target":34963},{"buffer":0,"byteOffset":1056616,"byteLength":318792,"target":34962},{"buffer":0,"byteOffset":1375408,"byteLength":318792,"target":34962},{"buffer":0,"byteOffset":1694200,"byteLength":212528,"target":34962},{"buffer":0,"byteOffset":1906728,"byteLength":212528,"target":34962},{"buffer":0,"byteOffset":2119256,"byteLength":110784,"target":34963},{"buffer":0,"byteOffset":2230040,"byteLength":71868,"target":34962},{"buffer":0,"byteOffset":2301908,"byteLength":71868,"target":34962},{"buffer":0,"byteOffset":2373776,"byteLength":47912,"target":34962},{"buffer":0,"byteOffset":2421688,"byteLength":47912,"target":34962},{"buffer":0,"byteOffset":2469600,"byteLength":23136,"target":34963},{"buffer":0,"byteOffset":2492736,"byteLength":24240,"target":34962},{"buffer":0,"byteOffset":2516976,"byteLength":24240,"target":34962},{"buffer":0,"byteOffset":2541216,"byteLength":16160,"target":34962},{"buffer":0,"byteOffset":2557376,"byteLength":16160,"target":34962}],"scene":0,"scenes":[{"nodes":[0,1,9],"name":"Demo - Arm chair"}],"extensionsUsed":["KHR_texture_transform"],"buffers":[{"byteLength":2573536,"uri":"sofa.bin"}]}